<svg xmlns="http://www.w3.org/2000/svg" xmlns:xlink="http://www.w3.org/1999/xlink" width="500" zoomAndPan="magnify" viewBox="0 0 375 374.999991" height="500" preserveAspectRatio="xMidYMid meet" version="1.0"><defs><clipPath id="c2d558a0e8"><path d="M 26 3.410156 L 349 3.410156 L 349 371.660156 L 26 371.660156 Z M 26 3.410156 " clip-rule="nonzero"/></clipPath><clipPath id="042a638121"><path d="M 114.550781 215 L 280 215 L 280 278 L 114.550781 278 Z M 114.550781 215 " clip-rule="nonzero"/></clipPath><clipPath id="aaa9ec4559"><path d="M 269 235 L 305.800781 235 L 305.800781 255 L 269 255 Z M 269 235 " clip-rule="nonzero"/></clipPath></defs><rect x="-37.5" width="450" fill="#ffffff" y="-37.499999" height="449.999989" fill-opacity="1"/><rect x="-37.5" width="450" fill="#ffffff" y="-37.499999" height="449.999989" fill-opacity="1"/><g clip-path="url(#c2d558a0e8)"><path fill="#ffbd59" d="M 331.28125 152.226562 L 330.53125 151.402344 C 325.273438 145.769531 320.464844 140.585938 315.503906 136.828125 C 320.765625 132.246094 324.21875 126.011719 324.296875 117.070312 C 324.371094 115.71875 324.21875 114.441406 323.996094 113.164062 C 323.769531 111.886719 323.394531 110.609375 322.867188 109.40625 C 322.34375 108.207031 321.742188 107.003906 320.988281 105.953125 C 320.238281 104.898438 319.414062 103.847656 318.4375 102.945312 C 312.875 97.761719 303.636719 95.359375 290.414062 95.660156 C 288.234375 83.789062 289.886719 70.492188 291.464844 57.570312 C 292.21875 51.113281 293.042969 44.425781 293.34375 38.113281 C 293.71875 30.601562 293.496094 22.789062 287.558594 16.480469 C 278.019531 6.5625 256.007812 3.484375 193.429688 3.484375 C 101.550781 3.484375 88.105469 31.953125 86.902344 35.183594 C 86.601562 36.011719 86.453125 36.914062 86.453125 37.816406 C 86.453125 38.714844 86.601562 39.542969 86.902344 40.445312 C 86.976562 40.59375 93.363281 58.546875 91.335938 86.195312 C 80.59375 92.28125 51.894531 111.511719 53.398438 142.085938 C 50.617188 144.792969 47.6875 147.945312 44.382812 151.476562 L 43.707031 152.226562 C 22.824219 174.691406 25.753906 193.171875 29.28125 202.1875 L 29.582031 202.863281 C 39.949219 223.21875 60.160156 240.273438 60.984375 241.023438 L 64.96875 244.40625 C 63.691406 261.457031 70.449219 302.25 70.601562 303.304688 L 78.714844 275.730469 C 82.472656 287.976562 87.878906 299.546875 94.792969 310.363281 L 109.890625 332.75 L 108.988281 316.375 C 123.488281 338.835938 144.449219 345.824219 145.648438 346.273438 L 158.046875 350.332031 C 165.40625 356.792969 173.296875 362.652344 181.558594 367.910156 L 187.417969 371.515625 L 193.277344 367.910156 C 201.617188 362.652344 209.503906 356.792969 216.867188 350.332031 L 229.1875 346.425781 C 230.464844 346.046875 251.351562 338.988281 265.847656 316.523438 L 264.949219 332.902344 L 280.046875 310.515625 C 287.035156 299.695312 292.367188 288.128906 296.199219 275.882812 L 301.832031 301.347656 C 301.984375 300.222656 313.476562 271.148438 309.945312 244.554688 L 313.929688 241.175781 C 314.753906 240.425781 334.960938 223.371094 345.328125 202.9375 L 345.628906 202.261719 C 349.3125 193.171875 352.167969 174.691406 331.28125 152.226562 Z M 331.28125 152.226562 " fill-opacity="1" fill-rule="nonzero"/></g><path fill="#ff66c4" d="M 107.335938 135.175781 L 95.691406 216.382812 L 133.328125 307.734375 L 181.183594 337.632812 L 240.605469 307.734375 L 284.703125 222.542969 L 278.167969 181.074219 L 278.167969 114.515625 Z M 107.335938 135.175781 " fill-opacity="1" fill-rule="nonzero"/><path fill="#000000" d="M 325.796875 157.335938 C 311.300781 141.785156 304.011719 133.449219 290.339844 142.238281 C 287.410156 74.699219 245.039062 55.019531 245.039062 55.019531 C 240.230469 69.59375 224.230469 76.128906 224.230469 76.128906 C 224.230469 76.128906 224.230469 51.5625 245.039062 33.832031 C 208.378906 30.226562 184.863281 59.375 176.976562 71.09375 L 174.722656 72.523438 C 176.828125 63.65625 183.964844 38.566406 201.316406 21.363281 C 135.507812 40.445312 124.464844 92.054688 124.464844 92.054688 C 124.316406 87.394531 124.765625 82.738281 125.816406 78.15625 C 126.871094 73.574219 128.523438 69.214844 130.699219 65.007812 C 130.699219 65.007812 91.9375 85.667969 85.925781 143.136719 L 85.851562 143.214844 C 71.277344 132.847656 63.914062 141.183594 48.964844 157.335938 C 34.015625 173.488281 31.535156 188.210938 35.96875 199.40625 C 45.734375 218.714844 65.492188 235.316406 65.492188 235.316406 C 65.492188 235.316406 43.257812 203.464844 43.480469 191.367188 C 43.707031 179.273438 71.277344 151.328125 80.367188 156.511719 C 89.457031 161.695312 88.332031 183.328125 88.855469 198.429688 C 65.566406 223.519531 73.15625 275.355469 73.15625 275.355469 C 73.15625 275.355469 73.90625 259.582031 84.5 231.183594 C 73.304688 265.214844 100.953125 306.234375 100.953125 306.234375 C 100.574219 296.390625 101.402344 286.550781 103.28125 276.859375 C 108.464844 326.515625 147.980469 339.210938 147.980469 339.210938 C 147.980469 339.210938 145.648438 334.253906 142.796875 320.28125 C 152.488281 339.511719 176.226562 355.738281 185.542969 361.597656 L 187.496094 362.800781 L 189.449219 361.597656 C 198.761719 355.738281 222.503906 339.511719 232.191406 320.28125 C 229.339844 334.328125 227.007812 339.210938 227.007812 339.210938 C 227.007812 339.210938 266.523438 326.515625 271.707031 276.859375 C 273.585938 286.550781 274.414062 296.316406 274.039062 306.234375 C 274.039062 306.234375 301.683594 265.214844 290.488281 231.109375 C 301.082031 259.503906 301.832031 275.28125 301.832031 275.28125 C 301.832031 275.28125 309.421875 223.445312 286.058594 198.355469 C 286.65625 183.253906 285.457031 161.542969 294.546875 156.433594 C 303.636719 151.25 331.132812 179.199219 331.433594 191.292969 C 331.734375 203.386719 309.269531 235.242188 309.269531 235.242188 C 309.269531 235.242188 329.027344 218.636719 338.792969 199.332031 C 343.300781 188.210938 340.824219 173.414062 325.796875 157.335938 Z M 187.496094 314.496094 C 152.9375 311.566406 104.332031 257.703125 121.910156 244.105469 C 139.640625 230.359375 174.046875 245.683594 185.617188 245.683594 L 185.617188 245.757812 C 185.617188 245.757812 186.292969 245.757812 187.570312 245.683594 C 188.847656 245.609375 189.523438 245.757812 189.523438 245.757812 L 189.523438 245.683594 C 201.015625 245.683594 235.421875 230.359375 253.226562 244.105469 C 270.65625 257.628906 222.050781 311.492188 187.496094 314.496094 Z M 245.039062 233.0625 C 235.800781 228.703125 209.882812 224.496094 189.449219 224.046875 L 189.449219 223.972656 C 188.773438 223.972656 188.171875 223.972656 187.496094 223.972656 C 186.816406 223.972656 186.21875 223.972656 185.542969 223.972656 L 185.542969 224.046875 C 165.109375 224.496094 139.191406 228.703125 129.949219 233.0625 C 120.109375 237.71875 113.574219 240.199219 115.824219 232.3125 C 127.46875 206.09375 157.21875 194.148438 175.097656 189.113281 C 179.15625 187.988281 183.289062 187.460938 187.496094 187.460938 C 191.703125 187.460938 195.832031 188.0625 199.816406 189.113281 C 217.769531 194.074219 247.519531 206.09375 259.085938 232.3125 C 261.417969 240.125 254.878906 237.71875 245.039062 233.0625 Z M 244.289062 206.394531 C 244.289062 206.394531 224.230469 194.074219 204.773438 188.589844 C 246.691406 196.925781 255.480469 185.28125 256.007812 177.847656 C 256.535156 170.410156 251.5 156.585938 251.5 156.585938 L 259.085938 142.085938 L 194.253906 179.648438 L 212.734375 164.324219 C 212.734375 164.324219 197.109375 168.078125 187.496094 179.046875 C 177.878906 168.078125 162.175781 164.324219 162.175781 164.324219 L 180.65625 179.648438 L 115.824219 142.011719 L 123.414062 156.511719 C 123.414062 156.511719 118.378906 170.332031 118.90625 177.769531 C 119.433594 185.207031 128.296875 196.851562 170.140625 188.511719 C 150.757812 194.074219 130.625 206.316406 130.625 206.316406 C 130.625 206.316406 94.191406 195.875 101.253906 150.726562 C 104.03125 144.339844 107.261719 138.179688 110.941406 132.320312 C 123.039062 119.625 140.542969 115.492188 148.503906 114.515625 C 158.121094 113.390625 184.1875 138.332031 187.195312 141.261719 L 187.496094 141.9375 L 187.496094 141.5625 C 187.496094 141.5625 216.265625 113.3125 226.484375 114.515625 C 236.699219 115.71875 262.695312 122.328125 272.683594 145.316406 C 283.578125 195.050781 244.289062 206.316406 244.289062 206.394531 Z M 244.289062 206.394531 " fill-opacity="1" fill-rule="nonzero"/><path fill="#000000" d="M 201.242188 195.425781 L 201.09375 195.425781 C 195.683594 195.5 192.300781 201.210938 194.554688 206.167969 C 195.984375 209.398438 198.988281 210.675781 202.746094 208.195312 C 208.152344 204.664062 212.285156 204.0625 215.964844 208.121094 C 213.035156 199.933594 208.90625 195.425781 201.242188 195.425781 Z M 201.242188 195.425781 " fill-opacity="1" fill-rule="nonzero"/><path fill="#000000" d="M 326.625 195.050781 C 326.625 189.566406 311.597656 165.148438 300.632812 165.675781 C 289.664062 166.203125 293.71875 188.964844 293.71875 188.964844 C 293.71875 188.964844 294.847656 179.421875 298.902344 179.121094 C 303.035156 178.824219 317.683594 184.15625 318.960938 194.449219 C 320.3125 204.738281 311.449219 216.382812 311.449219 216.382812 C 317.160156 210.824219 326.625 200.53125 326.625 195.050781 Z M 326.625 195.050781 " fill-opacity="1" fill-rule="nonzero"/><path fill="#000000" d="M 173.898438 195.425781 L 173.671875 195.425781 C 166.007812 195.425781 161.878906 199.933594 158.949219 208.121094 C 162.628906 204.0625 166.761719 204.738281 172.167969 208.195312 C 175.925781 210.601562 178.929688 209.398438 180.359375 206.167969 C 182.6875 201.210938 179.304688 195.5 173.898438 195.425781 Z M 173.898438 195.425781 " fill-opacity="1" fill-rule="nonzero"/><path fill="#000000" d="M 76.085938 179.121094 C 80.21875 179.421875 81.269531 188.964844 81.269531 188.964844 C 81.269531 188.964844 85.402344 166.125 74.359375 165.675781 C 63.390625 165.148438 48.363281 189.566406 48.363281 195.050781 C 48.363281 200.53125 57.832031 210.824219 63.539062 216.382812 C 63.539062 216.382812 54.675781 204.738281 56.027344 194.449219 C 57.304688 184.15625 71.953125 178.824219 76.085938 179.121094 Z M 76.085938 179.121094 " fill-opacity="1" fill-rule="nonzero"/><path fill="#000000" d="M 284.703125 103.546875 C 278.394531 82.8125 285.003906 58.324219 285.980469 37.890625 C 286.957031 17.457031 282.828125 10.996094 193.503906 10.996094 C 125.292969 10.996094 103.207031 26.695312 96.59375 34.132812 C 96.144531 34.585938 95.84375 35.109375 95.542969 35.636719 C 95.242188 36.160156 95.015625 36.761719 94.867188 37.363281 C 94.714844 37.964844 94.640625 38.566406 94.640625 39.242188 C 94.640625 39.84375 94.714844 40.519531 94.867188 41.121094 C 96.820312 48.105469 100.875 66.285156 98.398438 90.925781 C 98.398438 90.925781 45.359375 116.167969 65.269531 158.839844 C 85.175781 201.511719 135.960938 180.476562 183.664062 164.847656 C 264.195312 138.480469 316.558594 147.796875 316.859375 117.144531 C 317.007812 104.601562 302.285156 102.121094 284.703125 103.546875 Z M 284.703125 103.546875 " fill-opacity="1" fill-rule="nonzero"/><path fill="#ff66c4" d="M 101.550781 43.074219 C 108.164062 45.175781 115 46.753906 121.835938 47.730469 C 123.5625 47.957031 125.214844 48.332031 126.945312 48.480469 L 132.128906 49.082031 L 134.683594 49.382812 L 137.238281 49.609375 L 142.421875 49.984375 C 156.167969 50.660156 169.914062 50.359375 183.664062 49.082031 L 193.953125 48.03125 C 197.410156 47.582031 200.792969 46.980469 204.171875 46.527344 L 209.28125 45.777344 C 210.105469 45.703125 211.007812 45.476562 211.835938 45.328125 L 214.3125 44.875 C 217.695312 44.199219 221.148438 43.523438 224.53125 42.921875 L 227.085938 42.472656 L 229.640625 41.871094 C 231.292969 41.496094 233.019531 41.042969 234.746094 40.667969 L 244.890625 38.414062 C 251.648438 36.6875 258.335938 34.808594 265.246094 33.308594 C 258.9375 36.3125 252.402344 39.015625 245.867188 41.722656 L 235.875 45.101562 C 234.222656 45.703125 232.570312 46.226562 230.839844 46.753906 L 228.363281 47.582031 L 225.808594 48.257812 C 222.425781 49.160156 218.972656 50.058594 215.589844 50.886719 C 213.863281 51.261719 212.210938 51.789062 210.40625 52.089844 L 205.222656 53.066406 C 201.769531 53.742188 198.238281 54.34375 194.78125 54.867188 L 184.265625 56.070312 C 170.140625 57.273438 155.867188 57.347656 141.820312 55.394531 C 134.757812 54.492188 127.847656 53.066406 121.007812 51.113281 C 114.324219 49.007812 107.636719 46.605469 101.550781 43.074219 Z M 101.550781 43.074219 " fill-opacity="1" fill-rule="nonzero"/><path fill="#03989e" d="M 98.398438 93.78125 C 98.398438 93.78125 95.167969 125.109375 170.066406 123.457031 C 244.964844 121.726562 284.703125 103.546875 284.703125 103.546875 C 284.703125 103.546875 256.984375 133.148438 183.511719 146.445312 C 117.328125 158.3125 75.257812 142.460938 98.398438 93.78125 Z M 98.398438 93.78125 " fill-opacity="1" fill-rule="nonzero"/><path fill="#03989e" d="M 187.789062 274.421875 C 187.789062 274.421875 170.074219 277.023438 157.648438 268.636719 C 145.273438 260.292969 119.167969 246.300781 119.167969 246.300781 C 119.167969 246.300781 128.273438 240.695312 145.988281 226.253906 C 163.703125 211.855469 179.582031 220.0625 187.789062 221.632812 C 195.996094 220.0625 211.871094 211.8125 229.589844 226.253906 C 247.304688 240.648438 256.40625 246.300781 256.40625 246.300781 C 256.40625 246.300781 230.304688 260.292969 217.925781 268.636719 C 205.503906 277.023438 187.789062 274.421875 187.789062 274.421875 " fill-opacity="1" fill-rule="evenodd"/><path fill="#000000" d="M 153.570312 245.359375 L 159.039062 245.359375 L 159.039062 253.835938 L 153.570312 253.835938 Z M 153.570312 245.359375 " fill-opacity="1" fill-rule="nonzero"/><path fill="#000000" d="M 159.039062 236.882812 L 164.511719 236.882812 L 164.511719 245.359375 L 159.039062 245.359375 Z M 159.039062 236.882812 " fill-opacity="1" fill-rule="nonzero"/><path fill="#000000" d="M 148.097656 236.882812 L 153.570312 236.882812 L 153.570312 245.359375 L 148.097656 245.359375 Z M 148.097656 236.882812 " fill-opacity="1" fill-rule="nonzero"/><path fill="#000000" d="M 142.625 245.359375 L 148.097656 245.359375 L 148.097656 253.835938 L 142.625 253.835938 Z M 142.625 245.359375 " fill-opacity="1" fill-rule="nonzero"/><path fill="#000000" d="M 164.511719 245.359375 L 169.984375 245.359375 L 169.984375 253.835938 L 164.511719 253.835938 Z M 164.511719 245.359375 " fill-opacity="1" fill-rule="nonzero"/><path fill="#000000" d="M 230.171875 245.222656 L 235.644531 245.222656 L 235.644531 253.699219 L 230.171875 253.699219 Z M 230.171875 245.222656 " fill-opacity="1" fill-rule="nonzero"/><path fill="#000000" d="M 197.339844 245.222656 L 202.8125 245.222656 L 202.8125 253.699219 L 197.339844 253.699219 Z M 197.339844 245.222656 " fill-opacity="1" fill-rule="nonzero"/><path fill="#000000" d="M 219.226562 245.222656 L 224.699219 245.222656 L 224.699219 253.699219 L 219.226562 253.699219 Z M 219.226562 245.222656 " fill-opacity="1" fill-rule="nonzero"/><path fill="#000000" d="M 208.285156 245.222656 L 213.757812 245.222656 L 213.757812 253.699219 L 208.285156 253.699219 Z M 208.285156 245.222656 " fill-opacity="1" fill-rule="nonzero"/><path fill="#000000" d="M 175.457031 245.359375 L 180.925781 245.359375 L 180.925781 253.835938 L 175.457031 253.835938 Z M 175.457031 245.359375 " fill-opacity="1" fill-rule="nonzero"/><path fill="#000000" d="M 224.699219 236.746094 L 230.171875 236.746094 L 230.171875 245.222656 L 224.699219 245.222656 Z M 224.699219 236.746094 " fill-opacity="1" fill-rule="nonzero"/><path fill="#000000" d="M 137.152344 236.882812 L 142.625 236.882812 L 142.625 245.359375 L 137.152344 245.359375 Z M 137.152344 236.882812 " fill-opacity="1" fill-rule="nonzero"/><g clip-path="url(#042a638121)"><path fill="#000000" d="M 268.292969 252.625 C 267.84375 252.175781 267.574219 251.636719 267.574219 250.964844 L 267.574219 249.214844 L 260.21875 249.214844 C 259.144531 249.214844 258.15625 248.765625 257.441406 248.050781 C 256.722656 247.332031 256.273438 246.34375 256.273438 245.269531 C 256.273438 244.191406 256.722656 243.207031 257.441406 242.488281 C 258.15625 241.769531 259.144531 241.320312 260.21875 241.320312 L 267.574219 241.320312 L 267.574219 239.664062 C 267.574219 238.988281 267.84375 238.40625 268.292969 238.003906 C 268.742188 237.554688 269.324219 237.285156 269.953125 237.242188 L 278.921875 236.390625 C 276.546875 233.921875 273.226562 232.351562 269.546875 232.351562 C 265.648438 232.351562 262.148438 234.101562 259.726562 236.835938 L 248.335938 236.835938 C 247.886719 236.835938 247.527344 236.972656 247.214844 237.242188 C 243.582031 234.550781 238.378906 230.511719 230.980469 224.503906 C 215.191406 211.675781 200.972656 215.667969 191.691406 218.269531 C 190.210938 218.671875 188.863281 219.078125 187.742188 219.300781 C 186.578125 219.078125 185.277344 218.671875 183.796875 218.269531 C 174.511719 215.667969 160.296875 211.632812 144.507812 224.503906 C 126.929688 238.8125 117.957031 244.371094 117.914062 244.371094 L 114.550781 246.480469 L 118.046875 248.363281 C 118.136719 248.410156 143.972656 262.265625 156.351562 270.609375 C 168.503906 278.816406 185.277344 277.113281 187.789062 276.796875 C 190.300781 277.113281 207.074219 278.816406 219.226562 270.609375 C 227.347656 265.136719 239.992188 257.960938 247.753906 253.699219 C 247.976562 253.789062 248.199219 253.835938 248.425781 253.835938 L 259.816406 253.835938 C 262.195312 256.570312 265.738281 258.320312 269.636719 258.320312 C 273.316406 258.320312 276.636719 256.796875 279.011719 254.285156 L 270.042969 253.429688 C 269.324219 253.339844 268.742188 253.074219 268.292969 252.625 Z M 216.625 266.75 C 204.964844 274.601562 188.148438 272.132812 188.101562 272.132812 L 187.789062 272.089844 L 187.476562 272.132812 C 187.429688 272.132812 170.613281 274.601562 158.949219 266.75 C 153.300781 262.9375 144.777344 257.917969 137.152344 253.609375 L 137.152344 245.359375 L 131.683594 245.359375 L 131.683594 250.5625 C 128.453125 248.765625 125.671875 247.242188 123.65625 246.121094 C 127.78125 243.296875 135.71875 237.601562 147.46875 228.046875 C 161.417969 216.699219 174.246094 220.332031 182.632812 222.710938 C 184.378906 223.203125 185.949219 223.652344 187.386719 223.921875 L 187.832031 224.011719 L 188.28125 223.921875 C 189.71875 223.652344 191.285156 223.203125 193.035156 222.710938 C 201.421875 220.332031 214.25 216.746094 228.199219 228.046875 C 232.324219 231.410156 236 234.28125 239.230469 236.746094 L 235.734375 236.746094 L 235.734375 245.222656 L 241.113281 245.222656 L 241.113281 238.226562 C 243.175781 239.796875 244.972656 241.144531 246.585938 242.308594 L 246.585938 249.035156 C 246.316406 249.214844 246.003906 249.351562 245.734375 249.53125 L 245.734375 245.222656 L 241.113281 245.222656 L 241.113281 252.085938 C 232.90625 256.707031 222.996094 262.445312 216.625 266.75 Z M 216.625 266.75 " fill-opacity="1" fill-rule="nonzero"/></g><path fill="#000000" d="M 169.984375 236.882812 L 175.457031 236.882812 L 175.457031 245.359375 L 169.984375 245.359375 Z M 169.984375 236.882812 " fill-opacity="1" fill-rule="nonzero"/><g clip-path="url(#aaa9ec4559)"><path fill="#000000" d="M 306.011719 236.210938 C 306.011719 236.03125 305.921875 235.851562 305.785156 235.714844 C 305.695312 235.625 305.5625 235.535156 305.429688 235.535156 L 305.382812 235.535156 L 280.3125 237.914062 L 270.175781 238.898438 C 269.953125 238.945312 269.726562 239.035156 269.59375 239.167969 C 269.460938 239.304688 269.414062 239.4375 269.414062 239.617188 L 269.414062 241.277344 L 273.71875 241.277344 C 274.796875 241.277344 275.78125 241.726562 276.5 242.441406 C 277.21875 243.160156 277.667969 244.148438 277.667969 245.222656 C 277.667969 246.300781 277.21875 247.285156 276.5 248.003906 C 275.78125 248.722656 274.796875 249.171875 273.71875 249.171875 L 269.371094 249.171875 L 269.371094 250.917969 C 269.371094 251.097656 269.460938 251.234375 269.546875 251.367188 C 269.683594 251.503906 269.90625 251.59375 270.132812 251.636719 L 280.269531 252.625 L 305.339844 255 L 305.382812 255 C 305.519531 255 305.652344 254.957031 305.742188 254.820312 C 305.875 254.6875 305.964844 254.507812 305.964844 254.328125 C 306.011719 248.320312 306.011719 242.265625 306.011719 236.210938 Z M 302.109375 245.851562 C 302.558594 246.433594 302.828125 247.109375 302.828125 248.003906 C 302.828125 248.992188 302.421875 249.886719 301.796875 250.515625 C 301.167969 251.144531 300.269531 251.546875 299.285156 251.546875 C 297.714844 251.546875 296.1875 250.785156 294.710938 249.664062 C 293.273438 248.585938 291.929688 247.242188 290.539062 245.851562 L 289.910156 245.222656 L 290.539062 244.597656 C 291.929688 243.207031 293.273438 241.859375 294.710938 240.785156 C 296.1875 239.664062 297.714844 238.898438 299.285156 238.898438 C 300.269531 238.898438 301.167969 239.304688 301.796875 239.933594 C 302.421875 240.558594 302.828125 241.457031 302.828125 242.441406 C 302.828125 243.339844 302.601562 244.011719 302.109375 244.597656 C 301.929688 244.820312 301.75 245 301.527344 245.179688 C 301.75 245.449219 301.929688 245.628906 302.109375 245.851562 Z M 302.109375 245.851562 " fill-opacity="1" fill-rule="nonzero"/></g><path fill="#000000" d="M 260.21875 243.027344 C 259.59375 243.027344 259.054688 243.296875 258.652344 243.699219 C 258.246094 244.101562 257.976562 244.640625 257.976562 245.269531 C 257.976562 245.898438 258.246094 246.433594 258.652344 246.839844 C 259.054688 247.242188 259.59375 247.511719 260.21875 247.511719 L 273.628906 247.511719 C 274.257812 247.511719 274.796875 247.242188 275.199219 246.839844 C 275.601562 246.433594 275.871094 245.898438 275.871094 245.269531 C 275.871094 244.640625 275.601562 244.101562 275.199219 243.699219 C 274.796875 243.296875 274.257812 243.027344 273.628906 243.027344 Z M 260.21875 243.027344 " fill-opacity="1" fill-rule="nonzero"/><path fill="#000000" d="M 213.757812 236.746094 L 219.226562 236.746094 L 219.226562 245.222656 L 213.757812 245.222656 Z M 213.757812 236.746094 " fill-opacity="1" fill-rule="nonzero"/><path fill="#000000" d="M 186.398438 236.882812 L 180.925781 236.882812 L 180.925781 245.359375 L 186.398438 245.359375 L 186.398438 253.699219 L 191.871094 253.699219 L 191.871094 245.222656 L 186.398438 245.222656 Z M 186.398438 236.882812 " fill-opacity="1" fill-rule="nonzero"/><path fill="#000000" d="M 191.871094 236.746094 L 197.339844 236.746094 L 197.339844 245.222656 L 191.871094 245.222656 Z M 191.871094 236.746094 " fill-opacity="1" fill-rule="nonzero"/><path fill="#000000" d="M 202.8125 236.746094 L 208.285156 236.746094 L 208.285156 245.222656 L 202.8125 245.222656 Z M 202.8125 236.746094 " fill-opacity="1" fill-rule="nonzero"/></svg>